# xmcd
#
# Track frame offsets: 
#        150
#        21460
#        40655
#        57368
#        73163
#        97370
#        112818
#        130885
#        149885
#        162908
#
# Disc length: 2490 seconds
#
# Revision: 3
# Processed by: cddbd v1.5.2PL0 Copyright (c) Steve Scherf et al.
# Submitted via: ExactAudioCopy v0.99pb4
#
DISCID=9909b80a
DTITLE=Lonnie Brooks - Bayou Lightning
DYEAR=1979
DGENRE=Blues
TTITLE0=Voodoo Daddy
TTITLE1=Figure Head
TTITLE2=Watchdog
TTITLE3=Breakfast In Bed
TTITLE4=In The Dark
TTITLE5=Worked Up Woman
TTITLE6=Alimony
TTITLE7=Watch What You Got
TTITLE8=I Ain't Superstitious
TTITLE9=You Know What My Body Needs
EXTD=
EXTT0=
EXTT1=
EXTT2=
EXTT3=
EXTT4=
EXTT5=
EXTT6=
EXTT7=
EXTT8=
EXTT9=
PLAYORDER=
